<svg id="visual" viewBox="0 0 1920 1080" width="1920" height="1080" xmlns="http://www.w3.org/2000/svg" xmlns:xlink="http://www.w3.org/1999/xlink" version="1.1"><rect x="0" y="0" width="1920" height="1080" fill="#140021"></rect><path d="M758 0L879 0L879 154L803 154L803 309L1069 309L1069 463L1092 463L1092 617L791 617L791 771L1016 771L1016 926L972 926L972 1080L0 1080L0 926L0 926L0 771L0 771L0 617L0 617L0 463L0 463L0 309L0 309L0 154L0 154L0 0L0 0Z" fill="#9900ff"></path><path d="M661 0L482 0L482 154L743 154L743 309L744 309L744 463L671 463L671 617L676 617L676 771L581 771L581 926L440 926L440 1080L0 1080L0 926L0 926L0 771L0 771L0 617L0 617L0 463L0 463L0 309L0 309L0 154L0 154L0 0L0 0Z" fill="#7700c6"></path><path d="M177 0L498 0L498 154L198 154L198 309L291 309L291 463L458 463L458 617L503 617L503 771L183 771L183 926L345 926L345 1080L0 1080L0 926L0 926L0 771L0 771L0 617L0 617L0 463L0 463L0 309L0 309L0 154L0 154L0 0L0 0Z" fill="#560090"></path></svg>