<svg id="visual" viewBox="0 0 960 540" width="960" height="540" xmlns="http://www.w3.org/2000/svg" xmlns:xlink="http://www.w3.org/1999/xlink" version="1.1"><rect x="0" y="0" width="960" height="540" fill="#004c82"></rect><path d="M0 331L40 344.5C80 358 160 385 240 384.2C320 383.3 400 354.7 480 356.7C560 358.7 640 391.3 720 390C800 388.7 880 353.3 920 335.7L960 318L960 541L920 541C880 541 800 541 720 541C640 541 560 541 480 541C400 541 320 541 240 541C160 541 80 541 40 541L0 541Z" fill="#111417" stroke-linecap="round" stroke-linejoin="miter"></path></svg>