<?xml version="1.0" standalone="no"?>
<!DOCTYPE svg PUBLIC "-//W3C//DTD SVG 20010904//EN"
 "http://www.w3.org/TR/2001/REC-SVG-20010904/DTD/svg10.dtd">
<svg version="1.0" xmlns="http://www.w3.org/2000/svg"
 width="460.000000pt" height="460.000000pt" viewBox="0 0 460.000000 460.000000"
 preserveAspectRatio="xMidYMid meet">
<metadata>
Created by potrace 1.14, written by Peter Selinger 2001-2017
</metadata>
<g transform="translate(0.000000,460.000000) scale(0.100000,-0.100000)"
fill="#000000" stroke="none">
<path d="M1540 3354 c0 -4 33 -61 72 -128 40 -66 78 -130 84 -141 6 -11 43
-73 83 -137 l71 -118 0 -530 0 -530 -290 0 -290 0 0 135 0 135 -314 0 c-277 0
-315 -2 -320 -16 -3 -9 -6 -189 -6 -400 l0 -384 930 0 930 0 0 400 0 400 418
-2 417 -3 3 -397 2 -398 315 0 315 0 0 1060 0 1060 -315 0 -315 0 0 -400 0
-400 -420 0 -420 0 -2 398 -3 397 -472 3 c-260 1 -473 -1 -473 -4z"/>
</g>
</svg>
